# xmcd
#
# Track frame offsets: 
#        150
#        11910
#        25906
#        38834
#        50201
#        61172
#        78361
#        95580
#        104473
#        115263
#
# Disc length: 1654 seconds
#
# Revision: 2
# Processed by: cddbd v1.5.2PL0 Copyright (c) Steve Scherf et al.
# Submitted via: ExactAudioCopy v0.95b3
#
DISCID=8106740a
DTITLE=Various Artist - I'm A Man Of Constant Sorrow
DYEAR=2001
DGENRE=Bluegrass
TTITLE0=The Stanley Brothers - I'm A Man Of Constant Sorrow
TTITLE1=Sandy Posey - Down To The River To Pray
TTITLE2=The Stanley Brothers - Oh, Death
TTITLE3=The Phipps Family - Keep On The Sunny Side
TTITLE4=Cowboy Copas - In The Jailhouse Now
TTITLE5=Sandy Posey - Didn't Leave Nobody But The Baby
TTITLE6=Arthur Prysock - Lonesome Valley
TTITLE7=Dr. Lew Childre - Big Rock Candy Mountain
TTITLE8=Carl Story - Angel Band
TTITLE9=Nashville Dulcimers - Keep On The Sunny Side
EXTD=YEAR: 2001
EXTT0=
EXTT1=
EXTT2=
EXTT3=
EXTT4=
EXTT5=
EXTT6=
EXTT7=
EXTT8=
EXTT9=
PLAYORDER=
